<svg width="365" height="370" viewBox="0 0 365 370" fill="none" xmlns="http://www.w3.org/2000/svg">
<g clip-path="url(#clip0)">
<path d="M40.5264 123.824C43.3127 119.63 48.2154 117.852 53.0499 117.42C58.4916 116.933 63.7497 117.982 69.0627 119.002C74.9098 120.123 81.0981 121.173 86.9899 119.755C89.5962 119.152 92.0317 117.965 94.1127 116.284C96.1937 114.603 97.8659 112.472 99.0032 110.05C101.16 105.326 101.625 100.004 100.319 94.9772C98.9388 89.6313 95.5118 84.9275 91.3574 81.3747C82.8783 74.1234 71.4038 70.8646 60.3674 71.1715C49.3727 71.4553 38.7461 75.1916 29.9934 81.8511C21.226 88.7509 15.0565 98.4188 12.4919 109.277C9.81005 120.045 10.6837 131.392 14.9823 141.623C17.3974 147.226 20.8902 152.276 23.5855 157.738C26.0949 162.822 28.0275 168.734 26.4661 174.405C25.096 179.382 21.0735 183.803 16.0237 185.155C13.7262 185.757 11.295 185.598 9.09591 184.7C6.8968 183.803 5.04865 182.215 3.82944 180.177C1.30504 176.196 1.24464 170.983 5.03488 167.769C5.99051 166.945 7.10371 166.324 8.30678 165.944C9.50984 165.564 10.7776 165.433 12.0331 165.558C13.2885 165.683 14.5053 166.063 15.6096 166.673C16.7138 167.283 17.6824 168.112 18.4564 169.108C19.9941 171.105 20.6824 173.628 20.372 176.129C20.1853 177.393 22.1201 177.939 22.3085 176.663C22.7608 174.018 22.2593 171.298 20.8932 168.988C19.5271 166.678 17.3853 164.928 14.8494 164.05C12.3134 163.172 9.54798 163.222 7.04584 164.193C4.54371 165.163 2.46737 166.99 1.18676 169.349C-1.09897 173.646 0.134321 178.829 3.03582 182.503C4.53284 184.459 6.5619 185.943 8.88023 186.777C11.1986 187.61 13.708 187.758 16.1083 187.203C21.3898 185.983 25.7104 181.786 27.7422 176.853C30.0043 171.362 28.9679 165.234 26.7627 159.905C24.3791 154.145 20.8393 148.979 18.04 143.428C15.5054 138.412 13.8924 132.981 13.2781 127.394C12.0486 116.176 14.5948 104.868 20.5139 95.2595C26.5471 85.7999 35.7559 78.8015 46.4858 75.5216C57.066 72.2006 68.7349 72.3023 79.0942 76.3838C89.2985 80.4042 99.1518 89.1659 99.0335 100.933C98.983 105.96 97.1169 111.086 93.2664 114.439C88.6648 118.446 82.2577 118.788 76.4732 118.163C70.6519 117.534 64.999 115.834 59.1526 115.4C54.0675 115.023 48.5815 115.415 44.0411 117.941C41.9267 119.12 40.1266 120.79 38.7924 122.81C38.0752 123.89 39.8138 124.897 40.5264 123.824V123.824Z" fill="#BED9DA"/>
<path d="M153.882 170.531L285.67 170.296C285.906 170.296 286.132 170.202 286.298 170.036C286.465 169.869 286.558 169.643 286.558 169.407C286.558 169.172 286.465 168.946 286.298 168.779C286.132 168.613 285.906 168.519 285.67 168.519L153.882 168.754C153.646 168.754 153.42 168.848 153.254 169.015C153.087 169.181 152.994 169.407 152.994 169.643C152.994 169.878 153.087 170.104 153.254 170.271C153.42 170.437 153.646 170.531 153.882 170.531V170.531Z" fill="#F2F2F2"/>
<path d="M151.913 182.965C158.781 182.965 164.348 177.398 164.348 170.531C164.348 163.663 158.781 158.096 151.913 158.096C145.045 158.096 139.478 163.663 139.478 170.531C139.478 177.398 145.045 182.965 151.913 182.965Z" fill="#F2F2F2"/>
<path d="M279.763 170.468C262.904 170.468 246.424 165.469 232.407 156.103C218.39 146.738 207.465 133.426 201.013 117.852C194.562 102.277 192.874 85.1394 196.163 68.6056C199.452 52.0719 207.57 36.8847 219.491 24.9645C231.411 13.0443 246.599 4.92655 263.134 1.63778C279.668 -1.65099 296.806 0.0369326 312.382 6.48809C327.957 12.9392 341.269 23.8639 350.635 37.8805C360.001 51.8972 365 68.3763 365 85.234C364.974 107.832 355.986 129.496 340.006 145.475C324.027 161.454 302.361 170.442 279.763 170.468V170.468ZM279.763 5.87824C264.067 5.87824 248.724 10.5324 235.673 19.2521C222.623 27.9718 212.451 40.3655 206.444 54.8658C200.438 69.3662 198.866 85.322 201.928 100.716C204.99 116.109 212.549 130.249 223.647 141.347C234.746 152.445 248.886 160.003 264.28 163.065C279.675 166.127 295.631 164.555 310.132 158.549C324.633 152.543 337.027 142.372 345.747 129.322C354.467 116.272 359.122 100.929 359.122 85.234C359.098 64.1949 350.729 44.0243 335.851 29.1474C320.974 14.2705 300.803 5.90213 279.763 5.87824V5.87824Z" fill="#F2F2F2"/>
<path d="M316.541 119.386C313.421 119.388 310.371 118.465 307.776 116.733C305.181 115.001 303.157 112.539 301.961 109.658C300.766 106.776 300.451 103.605 301.058 100.545C301.664 97.4847 303.165 94.6731 305.369 92.4657C307.574 90.2582 310.384 88.754 313.443 88.1433C316.503 87.5326 319.675 87.8429 322.558 89.0348C325.441 90.2267 327.906 92.2467 329.641 94.8395C331.376 97.4323 332.303 100.481 332.305 103.601C332.306 107.784 330.646 111.796 327.691 114.756C324.735 117.716 320.724 119.381 316.541 119.386V119.386ZM279.762 119.386C275.583 119.381 271.576 117.719 268.621 114.763C265.666 111.808 264.003 107.802 263.999 103.623V66.8452C263.999 62.6645 265.66 58.6551 268.616 55.6989C271.572 52.7428 275.582 51.082 279.762 51.082C283.943 51.082 287.953 52.7428 290.909 55.6989C293.865 58.6551 295.526 62.6645 295.526 66.8452V103.623C295.521 107.802 293.859 111.809 290.904 114.764C287.948 117.719 283.942 119.381 279.762 119.386V119.386ZM242.994 119.386C238.812 119.381 234.802 117.717 231.845 114.76C228.888 111.803 227.224 107.793 227.22 103.611V88.9175C227.22 84.734 228.882 80.7218 231.84 77.7636C234.798 74.8054 238.81 73.1435 242.994 73.1435C247.178 73.1435 251.19 74.8054 254.149 77.7636C257.107 80.7218 258.769 84.734 258.769 88.9175V103.611C258.764 107.793 257.101 111.803 254.143 114.76C251.186 117.717 247.176 119.381 242.994 119.386Z" fill="white"/>
<path d="M22.9682 293.986V295.416C22.9703 297.784 23.9122 300.056 25.5874 301.731C27.2625 303.406 29.5339 304.348 31.9029 304.35H107.669C110.038 304.349 112.31 303.407 113.986 301.732C115.661 300.057 116.603 297.785 116.604 295.416V293.986C116.608 291.895 115.874 289.87 114.53 288.268C114.083 287.736 113.578 287.257 113.022 286.839H73.7241C73.2503 286.838 72.7958 286.65 72.4608 286.315C72.1257 285.98 71.9374 285.526 71.9372 285.052H31.9029C29.5343 285.055 27.2636 285.997 25.5887 287.672C23.9138 289.347 22.9715 291.618 22.9682 293.986Z" fill="#F2F2F2"/>
<path d="M64.786 369.751H74.078L74.078 303.995H64.786L64.786 369.751Z" fill="#F2F2F2"/>
<path d="M38.3393 369.425C38.3393 370.429 52.42 369.813 69.7893 369.813C87.1587 369.813 101.239 370.429 101.239 369.425C101.239 368.421 87.1587 360.459 69.7893 360.459C52.42 360.459 38.3393 368.421 38.3393 369.425Z" fill="#F2F2F2"/>
<path d="M37.5496 292.478L69.2568 297.538L106.096 303.421L118.869 305.458C120.096 305.651 121.349 305.35 122.353 304.622C123.358 303.893 124.033 302.795 124.23 301.569L124.809 297.953L125.345 294.586L125.788 291.813C125.888 291.193 125.861 290.559 125.709 289.95C125.557 289.34 125.282 288.768 124.902 288.268C124.453 287.653 123.855 287.161 123.165 286.839H73.7242C73.2503 286.838 72.7959 286.65 72.4608 286.315C72.1257 285.98 71.9374 285.526 71.9372 285.052V283.644C71.9374 283.17 72.1257 282.715 72.4608 282.38C72.7959 282.045 73.2503 281.857 73.7242 281.857H93.1519L84.1955 280.427L56.6624 276.032L40.5873 273.466C39.3582 273.271 38.102 273.572 37.0943 274.302C36.0866 275.032 35.4098 276.132 35.2123 277.361L33.6539 287.11C33.4637 288.338 33.7664 289.591 34.4961 290.596C35.2258 291.602 36.3234 292.278 37.5496 292.478Z" fill="#FCA59B"/>
<path d="M106.096 291.12V345.591C106.098 346.832 106.592 348.021 107.47 348.899C108.347 349.777 109.537 350.27 110.778 350.272H120.663C121.904 350.27 123.094 349.777 123.972 348.899C124.85 348.021 125.343 346.832 125.345 345.591V291.12C125.347 290.087 125.002 289.083 124.366 288.268C123.895 287.642 123.269 287.15 122.55 286.839H108.884C108.168 287.152 107.545 287.644 107.076 288.268C106.44 289.083 106.096 290.087 106.096 291.12V291.12Z" fill="#FCA59B"/>
<path d="M76.3044 198.925C76.3546 199.411 76.48 199.886 76.6761 200.333C76.9737 201.016 77.4324 201.617 78.0128 202.084L78.0344 202.098L106.239 224.977L106.654 225.306L112.494 230.045L114.259 231.474H144.801L143.043 230.045L118.905 210.461L102.73 197.338L90.1427 187.132C89.406 186.531 88.5027 186.172 87.5551 186.102C87.5514 186.098 87.5463 186.096 87.5408 186.095C87.2597 186.075 86.9774 186.08 86.6972 186.11C86.2778 186.152 85.8664 186.253 85.475 186.41C85.2075 186.507 84.953 186.636 84.7173 186.796C84.273 187.067 83.8788 187.413 83.5523 187.818L77.4195 195.373L77.3267 195.494C76.9379 195.97 76.6473 196.518 76.4719 197.107C76.2964 197.696 76.2395 198.314 76.3044 198.925V198.925Z" fill="#FCA59B"/>
<path d="M78.0344 202.098C78.5659 203.427 79.339 204.646 80.3145 205.694L99.0916 225.864C99.5454 226.28 100.077 226.604 100.656 226.815C101.235 227.025 101.85 227.12 102.465 227.093C103.081 227.066 103.685 226.917 104.243 226.656C104.801 226.395 105.302 226.026 105.717 225.571L106.239 224.977L106.468 224.72L114.581 215.621L118.069 211.705C118.301 211.463 118.502 211.194 118.669 210.904C118.755 210.761 118.833 210.611 118.905 210.461C119.197 209.793 119.332 209.067 119.298 208.338C119.274 207.718 119.126 207.11 118.862 206.549C118.598 205.988 118.224 205.485 117.761 205.072L95.9893 188.433C93.587 186.591 90.5624 185.755 87.5551 186.103C87.5514 186.098 87.5463 186.096 87.5408 186.095C86.8729 186.179 86.213 186.318 85.5678 186.51C85.282 186.589 85.0035 186.689 84.7173 186.796C82.8715 187.49 81.2349 188.647 79.9641 190.155C78.5817 191.779 77.6709 193.752 77.3307 195.857C76.9905 197.963 77.2339 200.121 78.0344 202.098V202.098Z" fill="#2F2E41"/>
<path d="M69.1185 169.491C88.9046 169.491 104.944 153.452 104.944 133.667C104.944 113.882 88.9046 97.8424 69.1185 97.8424C49.3324 97.8424 33.2925 113.882 33.2925 133.667C33.2925 153.452 49.3324 169.491 69.1185 169.491Z" fill="#FCA59B"/>
<path d="M59.5787 287.539L72.8663 289.655L73.1668 289.705L93.3661 292.928L106.096 294.965L124.809 297.953L125.345 298.039L128.125 298.482L140.899 300.519C142.125 300.712 143.378 300.412 144.383 299.683C145.388 298.954 146.063 297.856 146.259 296.631L147.374 289.655L147.818 286.881C147.818 286.867 147.825 286.853 147.825 286.839H73.7241C73.2503 286.838 72.7958 286.65 72.4608 286.315C72.1257 285.98 71.9374 285.526 71.9372 285.052V283.644C71.9374 283.17 72.1257 282.715 72.4608 282.38C72.7958 282.045 73.2503 281.857 73.7241 281.857H97.14V274.045L95.7104 273.816L88.6486 272.687L62.6096 268.534C61.3823 268.339 60.1277 268.639 59.1212 269.368C58.1148 270.097 57.4387 271.195 57.2414 272.422L56.6624 276.032L55.6831 282.179C55.4913 283.406 55.7935 284.659 56.5237 285.663C57.2538 286.668 58.3524 287.343 59.5787 287.539V287.539Z" fill="#FCA59B"/>
<path d="M20.359 255.89C20.359 285.095 23.3256 302.563 69.0711 297.56C69.1353 297.553 69.1926 297.546 69.2568 297.538C77.4159 296.732 85.4853 295.189 93.3661 292.928C97.4617 291.732 101.442 290.173 105.26 288.268C106.16 287.811 107.025 287.332 107.876 286.839H73.7241C73.2503 286.838 72.7958 286.65 72.4608 286.315C72.1257 285.98 71.9374 285.526 71.9372 285.052V283.644C71.9374 283.17 72.1257 282.715 72.4608 282.38C72.7958 282.045 73.2503 281.857 73.7241 281.857H97.14V236.714C97.142 235.325 97.6946 233.993 98.6768 233.011C99.6589 232.029 100.99 231.477 102.379 231.475H121.428C121.264 231.003 121.1 230.524 120.921 230.045C119.134 225.1 117.016 220.282 114.581 215.622C111.245 209.15 107.275 203.026 102.73 197.338C99.5644 193.375 96.0111 189.738 92.1226 186.481C84.9532 180.563 77.1479 176.904 69.2282 176.904C40.0226 176.904 20.359 226.686 20.359 255.89Z" fill="#BED9DA"/>
<path d="M68.3658 146.945L68.3286 145.606C70.8192 145.537 73.015 145.38 74.665 144.175C75.1328 143.814 75.5173 143.356 75.7923 142.833C76.0674 142.31 76.2266 141.734 76.2591 141.144C76.2881 140.783 76.2335 140.421 76.0997 140.085C75.9659 139.749 75.7563 139.448 75.4874 139.206C74.3921 138.281 72.6297 138.581 71.3451 139.17L70.2374 139.678L72.3616 124.154L73.688 124.336L71.8811 137.541C73.6266 137.027 75.2439 137.248 76.3516 138.184C76.7769 138.555 77.1106 139.02 77.3267 139.541C77.5427 140.063 77.6352 140.628 77.5969 141.191C77.5578 141.984 77.3458 142.758 76.9758 143.461C76.6057 144.163 76.0866 144.776 75.4547 145.256C73.3347 146.805 70.5796 146.882 68.3658 146.945Z" fill="#2F2E41"/>
<path d="M87.4582 125.475H80.2477V126.814H87.4582V125.475Z" fill="#2F2E41"/>
<path d="M64.6984 125.475H57.488V126.814H64.6984V125.475Z" fill="#2F2E41"/>
<path d="M46.227 211.504C46.284 211.634 46.3483 211.761 46.4196 211.883C46.4915 212.011 46.5703 212.135 46.6556 212.255L62.3234 234.805L63.5386 236.556L76.3187 254.939L88.6485 272.687L93.6376 279.877C93.7719 280.073 93.9226 280.257 94.0882 280.427C94.8596 281.239 95.8972 281.746 97.0115 281.857H97.1399V251.187L95.7104 249.129L79.6782 226.057L62.4595 201.276C61.7502 200.257 60.6658 199.561 59.4438 199.34C58.2219 199.119 56.9621 199.391 55.9406 200.097L50.6584 203.764L47.8206 205.736C46.9234 206.361 46.2729 207.279 45.9819 208.333C45.6908 209.386 45.7775 210.508 46.227 211.504V211.504Z" fill="#FCA59B"/>
<path d="M43.7752 210.954L44.4827 212.376L44.49 212.384L44.683 212.762L56.1692 235.563C56.8167 236.623 57.8578 237.384 59.0648 237.679C60.2717 237.973 61.5463 237.778 62.6095 237.135L63.3529 236.671L63.5386 236.556L78.3489 227.265C78.8775 226.945 79.3375 226.523 79.7023 226.024C80.0671 225.525 80.3295 224.959 80.4743 224.359C80.6192 223.758 80.6436 223.134 80.5462 222.524C80.4488 221.914 80.2315 221.329 79.9069 220.803L63.6388 198.746C62.0442 196.585 59.7539 195.038 57.1531 194.367C54.5523 193.695 51.7995 193.939 49.3576 195.058C48.8065 195.307 48.2759 195.598 47.7707 195.93C45.3796 197.51 43.6518 199.913 42.9153 202.682C42.1787 205.452 42.4847 208.395 43.7752 210.954V210.954Z" fill="#2F2E41"/>
<path d="M128.125 286.839V340.652C128.127 341.893 128.621 343.083 129.499 343.96C130.376 344.838 131.566 345.332 132.807 345.333H142.693C143.934 345.331 145.124 344.838 146.001 343.96C146.879 343.083 147.373 341.893 147.374 340.652V286.839H128.125Z" fill="#FCA59B"/>
<path d="M70.5077 283.644V285.052C70.5087 285.796 70.7668 286.517 71.2384 287.092C71.7099 287.668 72.3659 288.063 73.0952 288.211C73.1951 288.225 73.2952 288.246 73.3954 288.254C73.5026 288.261 73.6097 288.268 73.7242 288.268H183.914C185.683 288.267 187.38 287.565 188.631 286.315C189.883 285.064 190.587 283.369 190.59 281.599V236.714C190.587 234.944 189.883 233.248 188.631 231.998C187.38 230.748 185.683 230.045 183.914 230.045H102.379C100.611 230.047 98.9161 230.75 97.6659 232C96.4156 233.25 95.7124 234.945 95.7104 236.714V280.427H73.7242C72.8711 280.427 72.053 280.766 71.4498 281.369C70.8466 281.972 70.5077 282.791 70.5077 283.644Z" fill="white"/>
</g>
<defs>
<clipPath id="clip0">
<rect width="365" height="370" fill="white"/>
</clipPath>
</defs>
</svg>
